<svg width="65" height="45" viewBox="0 0 65 45" fill="none" xmlns="http://www.w3.org/2000/svg">
<rect x="0.5" y="2.5" width="64" height="42" rx="8.5" fill="url(#paint0_linear_1303_1333)" stroke="#8664F7"/>
<g clip-path="url(#clip0_1303_1333)">
<path d="M37.1027 11.7907C36.9005 11.7907 36.7596 11.9297 36.7596 12.129V17.5405C36.7596 17.7398 36.9005 17.8787 37.1027 17.8787H47.7418V11.7907H37.1027ZM40.5347 15.8494C39.9648 15.8494 39.5051 15.3964 39.5051 14.8347C39.5051 14.273 39.9648 13.8201 40.5347 13.8201C41.1047 13.8201 41.5643 14.273 41.5643 14.8347C41.5643 15.3904 41.0985 15.8494 40.5347 15.8494ZM27.7813 23.9666H46.0258C46.9757 23.9666 47.7418 23.2117 47.7418 22.2755V19.2316H37.1027C36.1651 19.2316 35.3868 18.4645 35.3868 17.5405V12.129C35.3868 11.2049 36.1651 10.4379 37.1027 10.4379H47.7418V7.39391C47.7418 6.45777 46.9757 5.70282 46.0258 5.70282L22.0205 5.67866C22.0144 5.67866 22.0083 5.67866 22.0021 5.67866C21.089 5.56995 20.2862 6.27659 20.2862 7.18253V18.4102C20.6968 18.3679 21.1135 18.3498 21.5486 18.3498C23.1666 18.3498 24.6987 18.6457 25.857 19.1893C27.0827 19.763 27.7874 20.5663 27.7874 21.3998V23.6344V23.9666H27.7813Z" fill="white"/>
<path d="M27.0459 25.1746V25.9537C27.0459 27.0831 24.7783 28.3333 21.5302 28.3333C18.2821 28.3333 16.0085 27.0831 16.0085 25.9537V25.1746C17.2771 26.0926 19.3301 26.6361 21.5241 26.6361C23.7242 26.6361 25.7834 26.0926 27.0459 25.1746Z" fill="white"/>
<path d="M27.0459 22.9037V23.6828C26.9785 24.166 26.6966 24.5887 26.2737 24.8364C25.238 25.6034 23.4668 26.0443 21.5302 26.0443C19.5936 26.0443 17.8531 25.5853 16.7807 24.8364C16.3578 24.5887 16.0759 24.1599 16.0085 23.6828V22.9158C17.657 23.9425 19.5814 24.4498 21.5241 24.3653C23.473 24.4317 25.3973 23.9244 27.0459 22.9037Z" fill="white"/>
<path d="M27.0459 21.2307C27.0214 21.5689 26.856 21.889 26.5986 22.1125C25.6793 23.0184 23.6875 23.6103 21.5303 23.6103C18.2822 23.6103 16.0146 22.354 16.0146 21.2307C16.0146 20.1073 18.2822 18.8511 21.5303 18.8511C24.7784 18.8511 27.0459 20.1013 27.0459 21.2307Z" fill="white"/>
</g>
<path d="M12.8523 38H9.75852V29.2727H12.8778C13.7557 29.2727 14.5114 29.4474 15.1449 29.7969C15.7784 30.1435 16.2656 30.642 16.6065 31.2926C16.9503 31.9432 17.1222 32.7216 17.1222 33.6278C17.1222 34.5369 16.9503 35.3182 16.6065 35.9716C16.2656 36.625 15.7756 37.1264 15.1364 37.4759C14.5 37.8253 13.7386 38 12.8523 38ZM11.6037 36.419H12.7756C13.321 36.419 13.7798 36.3224 14.152 36.1293C14.527 35.9332 14.8082 35.6307 14.9957 35.2216C15.1861 34.8097 15.2812 34.2784 15.2812 33.6278C15.2812 32.983 15.1861 32.456 14.9957 32.0469C14.8082 31.6378 14.5284 31.3366 14.1562 31.1435C13.7841 30.9503 13.3253 30.8537 12.7798 30.8537H11.6037V36.419ZM21.4379 38.1278C20.7646 38.1278 20.185 37.9915 19.6992 37.7188C19.2163 37.4432 18.8441 37.054 18.5827 36.5511C18.3214 36.0455 18.1907 35.4474 18.1907 34.7571C18.1907 34.0838 18.3214 33.4929 18.5827 32.9844C18.8441 32.4759 19.212 32.0795 19.6864 31.7955C20.1637 31.5114 20.7234 31.3693 21.3654 31.3693C21.7972 31.3693 22.1992 31.4389 22.5714 31.5781C22.9464 31.7145 23.2731 31.9205 23.5515 32.196C23.8327 32.4716 24.0515 32.8182 24.2077 33.2358C24.364 33.6506 24.4421 34.1364 24.4421 34.6932V35.1918H18.9151V34.0668H22.7333C22.7333 33.8054 22.6765 33.5739 22.5629 33.3722C22.4492 33.1705 22.2915 33.0128 22.0898 32.8991C21.891 32.7827 21.6594 32.7244 21.3952 32.7244C21.1197 32.7244 20.8754 32.7884 20.6623 32.9162C20.4521 33.0412 20.2873 33.2102 20.168 33.4233C20.0487 33.6335 19.9876 33.8679 19.9847 34.1264V35.196C19.9847 35.5199 20.0444 35.7997 20.1637 36.0355C20.2859 36.2713 20.4577 36.4531 20.6793 36.581C20.9009 36.7088 21.1637 36.7727 21.4677 36.7727C21.6694 36.7727 21.854 36.7443 22.0217 36.6875C22.1893 36.6307 22.3327 36.5455 22.4521 36.4318C22.5714 36.3182 22.6623 36.179 22.7248 36.0142L24.4038 36.125C24.3185 36.5284 24.1438 36.8807 23.8796 37.1818C23.6183 37.4801 23.2802 37.7131 22.8654 37.8807C22.4535 38.0455 21.9776 38.1278 21.4379 38.1278ZM25.6268 40.4545V31.4545H27.4165V32.554H27.4975C27.5771 32.3778 27.6921 32.1989 27.8427 32.017C27.9961 31.8324 28.195 31.679 28.4393 31.5568C28.6864 31.4318 28.9933 31.3693 29.3597 31.3693C29.837 31.3693 30.2773 31.4943 30.6808 31.7443C31.0842 31.9915 31.4066 32.3651 31.6481 32.8651C31.8896 33.3622 32.0103 33.9858 32.0103 34.7358C32.0103 35.4659 31.8924 36.0824 31.6566 36.5852C31.4237 37.0852 31.1055 37.4645 30.7021 37.723C30.3015 37.9787 29.8526 38.1065 29.3555 38.1065C29.0032 38.1065 28.7035 38.0483 28.4563 37.9318C28.212 37.8153 28.0117 37.669 27.8555 37.4929C27.6992 37.3139 27.5799 37.1335 27.4975 36.9517H27.4421V40.4545H25.6268ZM27.4038 34.7273C27.4038 35.1165 27.4577 35.456 27.5657 35.7457C27.6737 36.0355 27.8299 36.2614 28.0344 36.4233C28.239 36.5824 28.4876 36.6619 28.7802 36.6619C29.0756 36.6619 29.3256 36.581 29.5302 36.419C29.7347 36.2543 29.8896 36.027 29.9947 35.7372C30.1026 35.4446 30.1566 35.108 30.1566 34.7273C30.1566 34.3494 30.104 34.017 29.9989 33.7301C29.8938 33.4432 29.739 33.2187 29.5344 33.0568C29.3299 32.8949 29.0785 32.8139 28.7802 32.8139C28.4847 32.8139 28.2347 32.892 28.0302 33.0483C27.8285 33.2045 27.6737 33.4261 27.5657 33.7131C27.4577 34 27.4038 34.3381 27.4038 34.7273ZM36.1779 38.1278C35.516 38.1278 34.9435 37.9872 34.4606 37.706C33.9805 37.4219 33.6097 37.027 33.3484 36.5213C33.087 36.0128 32.9563 35.4233 32.9563 34.7528C32.9563 34.0767 33.087 33.4858 33.3484 32.9801C33.6097 32.4716 33.9805 32.0767 34.4606 31.7955C34.9435 31.5114 35.516 31.3693 36.1779 31.3693C36.8398 31.3693 37.4109 31.5114 37.891 31.7955C38.3739 32.0767 38.7461 32.4716 39.0075 32.9801C39.2688 33.4858 39.3995 34.0767 39.3995 34.7528C39.3995 35.4233 39.2688 36.0128 39.0075 36.5213C38.7461 37.027 38.3739 37.4219 37.891 37.706C37.4109 37.9872 36.8398 38.1278 36.1779 38.1278ZM36.1864 36.7216C36.4876 36.7216 36.739 36.6364 36.9407 36.4659C37.1424 36.2926 37.2944 36.0568 37.3967 35.7585C37.5018 35.4602 37.5543 35.1207 37.5543 34.7401C37.5543 34.3594 37.5018 34.0199 37.3967 33.7216C37.2944 33.4233 37.1424 33.1875 36.9407 33.0142C36.739 32.8409 36.4876 32.7543 36.1864 32.7543C35.8825 32.7543 35.6268 32.8409 35.4194 33.0142C35.2148 33.1875 35.06 33.4233 34.9549 33.7216C34.8526 34.0199 34.8015 34.3594 34.8015 34.7401C34.8015 35.1207 34.8526 35.4602 34.9549 35.7585C35.06 36.0568 35.2148 36.2926 35.4194 36.4659C35.6268 36.6364 35.8825 36.7216 36.1864 36.7216ZM46.0259 33.321L44.364 33.4233C44.3356 33.2812 44.2745 33.1534 44.1808 33.0398C44.087 32.9233 43.9634 32.831 43.81 32.7628C43.6594 32.6918 43.479 32.6562 43.2688 32.6562C42.9876 32.6562 42.7504 32.7159 42.5572 32.8352C42.364 32.9517 42.2674 33.108 42.2674 33.304C42.2674 33.4602 42.3299 33.5923 42.4549 33.7003C42.5799 33.8082 42.7944 33.8949 43.0984 33.9602L44.283 34.1989C44.9194 34.3295 45.3938 34.5398 45.7063 34.8295C46.0188 35.1193 46.1751 35.5 46.1751 35.9716C46.1751 36.4006 46.0487 36.777 45.7958 37.1009C45.5458 37.4247 45.2021 37.6776 44.7646 37.8594C44.3299 38.0384 43.8285 38.1278 43.2603 38.1278C42.3938 38.1278 41.7035 37.9474 41.1893 37.5866C40.6779 37.223 40.3782 36.7287 40.2901 36.1037L42.0756 36.0099C42.1296 36.2741 42.2603 36.4759 42.4677 36.6151C42.6751 36.7514 42.9407 36.8196 43.2646 36.8196C43.5827 36.8196 43.8384 36.7585 44.0316 36.6364C44.2276 36.5114 44.3271 36.3509 44.3299 36.1548C44.3271 35.9901 44.2575 35.8551 44.1211 35.75C43.9847 35.642 43.7745 35.5597 43.4904 35.5028L42.3569 35.277C41.7177 35.1491 41.2418 34.9276 40.9293 34.6122C40.6197 34.2969 40.4648 33.8949 40.4648 33.4062C40.4648 32.9858 40.5785 32.6236 40.8058 32.3196C41.0359 32.0156 41.3583 31.7812 41.7731 31.6165C42.1907 31.4517 42.6793 31.3693 43.239 31.3693C44.0657 31.3693 44.7163 31.544 45.1907 31.8935C45.668 32.2429 45.9464 32.7187 46.0259 33.321ZM47.3182 38V31.4545H49.1335V38H47.3182ZM48.2301 30.6108C47.9602 30.6108 47.7287 30.5213 47.5355 30.3423C47.3452 30.1605 47.25 29.9432 47.25 29.6903C47.25 29.4403 47.3452 29.2259 47.5355 29.0469C47.7287 28.8651 47.9602 28.7741 48.2301 28.7741C48.5 28.7741 48.7301 28.8651 48.9205 29.0469C49.1136 29.2259 49.2102 29.4403 49.2102 29.6903C49.2102 29.9432 49.1136 30.1605 48.9205 30.3423C48.7301 30.5213 48.5 30.6108 48.2301 30.6108ZM54.0692 31.4545V32.8182H50.1275V31.4545H54.0692ZM51.0224 29.8864H52.8377V35.9886C52.8377 36.1562 52.8633 36.2869 52.9144 36.3807C52.9656 36.4716 53.0366 36.5355 53.1275 36.5724C53.2212 36.6094 53.3292 36.6278 53.4513 36.6278C53.5366 36.6278 53.6218 36.6207 53.707 36.6065C53.7923 36.5895 53.8576 36.5767 53.9031 36.5682L54.1886 37.919C54.0977 37.9474 53.9698 37.9801 53.805 38.017C53.6403 38.0568 53.44 38.081 53.2042 38.0895C52.7667 38.1065 52.3832 38.0483 52.0536 37.9148C51.7269 37.7812 51.4727 37.5739 51.2908 37.2926C51.109 37.0114 51.0195 36.6562 51.0224 36.2273V29.8864Z" fill="white"/>
<defs>
<linearGradient id="paint0_linear_1303_1333" x1="32.5" y1="45" x2="32.5" y2="2" gradientUnits="userSpaceOnUse">
<stop stop-color="#5524FD"/>
<stop offset="1" stop-color="#6D44F7"/>
</linearGradient>
<clipPath id="clip0_1303_1333">
<rect width="31.7333" height="22.6667" fill="white" transform="translate(16.0085 5.66663)"/>
</clipPath>
</defs>
</svg>
