<svg width="38" height="38" viewBox="0 0 38 38" fill="none" xmlns="http://www.w3.org/2000/svg">
<path d="M5.56184 7.94946C4.24815 7.94946 3.19025 9.00702 3.19025 10.3211V27.7117C3.19025 29.0254 4.2478 30.0833 5.56184 30.0833H32.4383C33.752 30.0833 34.8099 29.0257 34.8099 27.7117V10.3211C34.8099 9.00737 33.7523 7.94946 32.4383 7.94946H5.56184ZM7.43938 11.4944L7.4391 11.4942C7.68199 11.4671 7.92351 11.5537 8.09388 11.7288L17.8761 21.3261C18.4882 21.9265 19.4857 21.9268 20.0994 21.3261L29.9063 11.7288H29.906C30.0541 11.5766 30.2573 11.4903 30.4695 11.4895C30.6818 11.4886 30.8856 11.573 31.035 11.7241C31.1844 11.8752 31.2666 12.0797 31.2633 12.292C31.2603 12.5043 31.1717 12.7064 31.0176 12.8528L24.6074 19.1395L31.0052 25.1548H31.0055C31.3203 25.4553 31.333 25.954 31.0339 26.2703C30.7345 26.5865 30.236 26.6014 29.9184 26.3033L23.4833 20.2388L21.2107 22.462C19.9855 23.6613 17.9889 23.6638 16.7642 22.462L14.5162 20.2512L8.08106 26.3033H8.08134C7.76373 26.6014 7.26531 26.5865 6.96584 26.2703C6.6667 25.954 6.67939 25.4553 6.99424 25.1548L13.38 19.1395L6.98217 12.8528C6.75912 12.6411 6.67945 12.3193 6.77733 12.0279C6.87547 11.7365 7.13353 11.5283 7.439 11.4941L7.43938 11.4944Z" fill="#7782AA"/>
</svg>
