<svg width="22" height="22" viewBox="0 0 22 22" fill="none" xmlns="http://www.w3.org/2000/svg">
<path d="M2.26652 21.1542H6.04407C6.31407 21.1542 6.56348 21.0102 6.69839 20.7764C6.8333 20.5427 6.8333 20.2547 6.69839 20.0209C6.56348 19.7872 6.31406 19.6432 6.04407 19.6432H2.26652C2.06618 19.643 1.8741 19.5634 1.73244 19.4217C1.59079 19.2801 1.51119 19.088 1.51102 18.8877V15.1101C1.51102 14.8401 1.367 14.5907 1.13326 14.4558C0.899527 14.3209 0.611488 14.3209 0.377755 14.4558C0.144022 14.5907 0 14.8401 0 15.1101V18.8877C0.000674562 19.4885 0.239639 20.0648 0.664633 20.4896C1.08944 20.9145 1.6657 21.1535 2.26652 21.1542Z" fill="#7782AA"/>
<path d="M18.888 4.28189e-06H15.1105C14.8405 4.28189e-06 14.5911 0.144022 14.4562 0.377759C14.3213 0.611496 14.3213 0.899535 14.4562 1.13327C14.5911 1.367 14.8405 1.51102 15.1105 1.51102H18.888C19.0884 1.51119 19.2805 1.59079 19.4221 1.73245C19.5638 1.8741 19.6434 2.06619 19.6435 2.26653V6.04408C19.6435 6.31407 19.7875 6.56348 20.0213 6.69839C20.255 6.8333 20.5431 6.8333 20.7768 6.69839C21.0105 6.56348 21.1546 6.31406 21.1546 6.04408V2.26653C21.1539 1.66566 20.9149 1.0894 20.4899 0.664633C20.0651 0.239656 19.4889 0.000695033 18.888 4.28189e-06Z" fill="#7782AA"/>
<path d="M20.399 14.3546C20.1987 14.3546 20.0064 14.4342 19.8648 14.5759C19.7231 14.7175 19.6435 14.9098 19.6435 15.1101V18.8877C19.6434 19.088 19.5638 19.2801 19.4221 19.4218C19.2805 19.5634 19.0884 19.643 18.888 19.6432H15.1105C14.8405 19.6432 14.5911 19.7872 14.4562 20.0209C14.3213 20.2547 14.3213 20.5427 14.4562 20.7764C14.5911 21.0102 14.8405 21.1542 15.1105 21.1542H18.888C19.4889 21.1535 20.0652 20.9146 20.4899 20.4896C20.9149 20.0648 21.1539 19.4885 21.1546 18.8877V15.1101C21.1546 14.9098 21.075 14.7175 20.9333 14.5759C20.7916 14.4342 20.5994 14.3546 20.399 14.3546Z" fill="#7782AA"/>
<path d="M0.755514 6.79958C0.955858 6.79958 1.14811 6.71998 1.28977 6.57833C1.43142 6.43667 1.51102 6.24442 1.51102 6.04407V2.26652C1.51119 2.06618 1.59079 1.8741 1.73245 1.73244C1.8741 1.59079 2.06619 1.51119 2.26653 1.51102H6.04408C6.31407 1.51102 6.56348 1.367 6.69839 1.13326C6.8333 0.899527 6.8333 0.611488 6.69839 0.377755C6.56348 0.144022 6.31406 0 6.04408 0H2.26653C1.66566 0.000674562 1.0894 0.239639 0.664632 0.664633C0.239656 1.08944 0.000690752 1.6657 0 2.26653V6.04408C0 6.24442 0.0796005 6.43667 0.221256 6.57833C0.362912 6.71999 0.55517 6.79958 0.755514 6.79958Z" fill="#7782AA"/>
<path d="M10.5771 6.79956C10.3767 6.79956 10.1845 6.87916 10.0428 7.02082C9.90116 7.16247 9.82156 7.35473 9.82156 7.55507V9.8216H9.06605C8.79605 9.8216 8.54664 9.96562 8.41173 10.1994C8.27682 10.4331 8.27682 10.7211 8.41173 10.9549C8.54664 11.1886 8.79606 11.3326 9.06605 11.3326H10.5771C10.7774 11.3326 10.9697 11.253 11.1113 11.1114C11.253 10.9697 11.3326 10.7775 11.3326 10.5771V7.55507C11.3326 7.35473 11.253 7.16247 11.1113 7.02082C10.9697 6.87916 10.7774 6.79956 10.5771 6.79956Z" fill="#7782AA"/>
<path d="M6.79938 6.79953C6.79938 7.63396 6.12279 8.31055 5.28836 8.31055C4.45393 8.31055 3.77734 7.63396 3.77734 6.79953C3.77734 5.9651 4.45393 5.28851 5.28836 5.28851C6.12279 5.28851 6.79938 5.9651 6.79938 6.79953Z" fill="#7782AA"/>
<path d="M17.377 6.79953C17.377 7.63396 16.7004 8.31055 15.866 8.31055C15.0316 8.31055 14.355 7.63396 14.355 6.79953C14.355 5.9651 15.0316 5.28851 15.866 5.28851C16.7004 5.28851 17.377 5.9651 17.377 6.79953Z" fill="#7782AA"/>
<path d="M10.5773 15.8657C9.71387 15.8637 8.86882 15.6161 8.14077 15.1519C7.41276 14.6878 6.8318 14.026 6.46548 13.2441C6.38453 13.0569 6.23124 12.9103 6.04068 12.8378C5.84994 12.7653 5.63813 12.773 5.45332 12.8591C5.26832 12.9452 5.12599 13.1024 5.05887 13.295C4.99159 13.4874 5.00508 13.6991 5.09614 13.8815C5.75788 15.3035 6.94645 16.4127 8.41076 16.9747C9.87489 17.5369 11.5004 17.508 12.9438 16.8943C14.3872 16.2804 15.5355 15.1298 16.1465 13.685C16.2271 13.5002 16.2303 13.2906 16.1556 13.1032C16.0807 12.9157 15.934 12.7661 15.7482 12.6874C15.5623 12.6088 15.3529 12.6078 15.1662 12.6847C14.9797 12.7614 14.8316 12.9096 14.7549 13.0963C14.4087 13.9181 13.8276 14.6191 13.0843 15.1119C12.3413 15.6045 11.4691 15.8667 10.5775 15.8657L10.5773 15.8657Z" fill="#7782AA"/>
</svg>
