<svg width="38" height="40" viewBox="0 0 38 40" fill="none" xmlns="http://www.w3.org/2000/svg">
<path d="M7.97021 24V33L15.2092 27.96L7.97021 24Z" fill="black"/>
<path d="M29.687 24V33L22.448 27.96L29.687 24Z" fill="black"/>
<g filter="url(#filter0_d_1301_47272)">
<path d="M8 20V23.3169C10.7055 24.9753 16.3728 28.5291 17.3981 29.4767C18.4233 30.4244 19.534 29.8716 19.9612 29.4767L23.165 27.3445L29.7864 23.0799L30 20H8Z" fill="white"/>
</g>
<g filter="url(#filter1_i_1301_47272)">
<path fill-rule="evenodd" clip-rule="evenodd" d="M24.7012 5.46431L18.7012 2.14288L12.7012 5.46431L6.70117 8.78574V15.4286V22.0715L12.7012 25.3929L18.7012 28.7143L24.7012 25.3929L30.7012 22.0715V15.4286V8.78574L24.7012 5.46431Z" fill="url(#paint0_linear_1301_47272)"/>
</g>
<g filter="url(#filter2_d_1301_47272)">
<path d="M12.4574 12.1559L13.9489 17.2837H14.0057L15.4972 12.1559H17.7273L15.3267 19.4286H12.6278L10.2273 12.1559H12.4574ZM20.5022 12.1559V19.4286H18.5277V12.1559H20.5022ZM21.5379 19.4286V12.1559H24.6771C25.2169 12.1559 25.6892 12.2624 26.094 12.4755C26.4988 12.6885 26.8137 12.988 27.0386 13.3739C27.2635 13.7598 27.376 14.2108 27.376 14.7269C27.376 15.2477 27.26 15.6987 27.0279 16.0799C26.7983 16.461 26.4752 16.7546 26.0585 16.9605C25.6442 17.1665 25.16 17.2695 24.6061 17.2695H22.7311V15.7354H24.2083C24.4404 15.7354 24.638 15.6952 24.8014 15.6147C24.9671 15.5318 25.0938 15.4146 25.1814 15.2631C25.2713 15.1116 25.3163 14.9329 25.3163 14.7269C25.3163 14.5186 25.2713 14.341 25.1814 14.1942C25.0938 14.0451 24.9671 13.9314 24.8014 13.8533C24.638 13.7728 24.4404 13.7326 24.2083 13.7326H23.5123V19.4286H21.5379Z" fill="#974C19"/>
</g>
<path fill-rule="evenodd" clip-rule="evenodd" d="M24.8427 4.50004L20.5687 2.02113C19.3276 1.30131 17.796 1.30131 16.555 2.02112L12.2809 4.50004L7.99316 6.98688C6.75941 7.70244 6 9.02079 6 10.447V15.4286V20.4102C6 21.8364 6.75941 23.1548 7.99316 23.8703L12.2809 26.3572L16.555 28.8361C17.796 29.5559 19.3276 29.5559 20.5687 28.8361L24.8427 26.3572L29.1305 23.8703C30.3642 23.1548 31.1236 21.8364 31.1236 20.4102V15.4286V10.447C31.1236 9.02079 30.3642 7.70244 29.1305 6.98688L24.8427 4.50004ZM24.2388 25.2238C23.0162 25.9299 21.8103 26.636 20.5996 27.3421C19.3648 28.0622 17.8393 28.0622 16.6045 27.3421C15.3938 26.636 14.188 25.9299 12.9654 25.2238C11.7424 24.5176 10.5363 23.8113 9.32531 23.1051C8.091 22.3852 7.32865 21.0651 7.32865 19.6362C7.32865 18.2202 7.32865 16.8042 7.32865 15.3881C7.32865 13.9721 7.32865 12.5561 7.32865 11.14C7.32865 9.71117 8.091 8.39104 9.32531 7.6712C10.5363 6.96494 11.7424 6.25868 12.9654 5.55242C14.188 4.84633 15.3938 4.14024 16.6045 3.43415C17.8393 2.71403 19.3648 2.71403 20.5996 3.43415C21.8103 4.14024 23.0162 4.84633 24.2388 5.55242C25.4617 6.25868 26.6678 6.96494 27.8788 7.6712C29.1131 8.39104 29.8755 9.71117 29.8755 11.14C29.8755 12.5561 29.8755 13.9721 29.8755 15.3881C29.8755 16.8042 29.8755 18.2202 29.8755 19.6362C29.8755 21.0651 29.1131 22.3852 27.8788 23.1051C26.6678 23.8113 25.4617 24.5176 24.2388 25.2238Z" fill="url(#paint1_linear_1301_47272)"/>
<path fill-rule="evenodd" clip-rule="evenodd" d="M25.3441 3.85714L20.7098 1.16625C19.4678 0.445125 17.9346 0.445124 16.6927 1.16625L12.0584 3.85714L7.40699 6.55795C6.1742 7.27377 5.41553 8.59157 5.41553 10.0171V15.4286V20.84C5.41553 22.2656 6.1742 23.5834 7.40698 24.2992L12.0584 27L16.6927 29.6909C17.9346 30.412 19.4678 30.412 20.7098 29.6909L25.3441 27L29.9955 24.2992C31.2283 23.5834 31.987 22.2656 31.987 20.84V15.4286V10.0171C31.987 8.59158 31.2283 7.27377 29.9955 6.55796L25.3441 3.85714ZM24.7054 25.8C23.3741 26.5697 22.0618 27.3393 20.7432 28.109C19.5075 28.8303 17.9802 28.8303 16.7445 28.109C15.4259 27.3393 14.1135 26.5697 12.7823 25.8C11.4496 25.0295 10.1359 24.259 8.81582 23.4885C7.58239 22.7685 6.82074 21.449 6.82074 20.0208C6.82074 18.4758 6.82074 16.9307 6.82074 15.3857C6.82074 13.8407 6.82074 12.2956 6.82074 10.7506C6.82074 9.32243 7.58239 8.0029 8.81582 7.28294C10.1359 6.51244 11.4496 5.74193 12.7823 4.97143C14.1135 4.20175 15.4259 3.43208 16.7445 2.66241C17.9802 1.94111 19.5075 1.94111 20.7432 2.66241C22.0618 3.43208 23.3741 4.20175 24.7054 4.97143C26.038 5.74193 27.3518 6.51244 28.6718 7.28294C29.9053 8.0029 30.6669 9.32243 30.6669 10.7506C30.6669 12.2956 30.6669 13.8407 30.6669 15.3857C30.6669 16.9307 30.6669 18.4758 30.6669 20.0208C30.6669 21.449 29.9053 22.7685 28.6718 23.4885C27.3518 24.259 26.038 25.0295 24.7054 25.8Z" fill="url(#paint2_linear_1301_47272)"/>
<defs>
<filter id="filter0_d_1301_47272" x="0" y="14" width="38" height="26" filterUnits="userSpaceOnUse" color-interpolation-filters="sRGB">
<feFlood flood-opacity="0" result="BackgroundImageFix"/>
<feColorMatrix in="SourceAlpha" type="matrix" values="0 0 0 0 0 0 0 0 0 0 0 0 0 0 0 0 0 0 127 0" result="hardAlpha"/>
<feOffset dy="2"/>
<feGaussianBlur stdDeviation="4"/>
<feComposite in2="hardAlpha" operator="out"/>
<feColorMatrix type="matrix" values="0 0 0 0 0 0 0 0 0 0 0 0 0 0 0 0 0 0 0.8 0"/>
<feBlend mode="normal" in2="BackgroundImageFix" result="effect1_dropShadow_1301_47272"/>
<feBlend mode="normal" in="SourceGraphic" in2="effect1_dropShadow_1301_47272" result="shape"/>
</filter>
<filter id="filter1_i_1301_47272" x="6.70117" y="2.14288" width="24" height="26.5714" filterUnits="userSpaceOnUse" color-interpolation-filters="sRGB">
<feFlood flood-opacity="0" result="BackgroundImageFix"/>
<feBlend mode="normal" in="SourceGraphic" in2="BackgroundImageFix" result="shape"/>
<feColorMatrix in="SourceAlpha" type="matrix" values="0 0 0 0 0 0 0 0 0 0 0 0 0 0 0 0 0 0 127 0" result="hardAlpha"/>
<feOffset/>
<feGaussianBlur stdDeviation="2"/>
<feComposite in2="hardAlpha" operator="arithmetic" k2="-1" k3="1"/>
<feColorMatrix type="matrix" values="0 0 0 0 0 0 0 0 0 0 0 0 0 0 0 0 0 0 0.67 0"/>
<feBlend mode="normal" in2="shape" result="effect1_innerShadow_1301_47272"/>
</filter>
<filter id="filter2_d_1301_47272" x="9.22705" y="11.1559" width="21.1489" height="11.2727" filterUnits="userSpaceOnUse" color-interpolation-filters="sRGB">
<feFlood flood-opacity="0" result="BackgroundImageFix"/>
<feColorMatrix in="SourceAlpha" type="matrix" values="0 0 0 0 0 0 0 0 0 0 0 0 0 0 0 0 0 0 127 0" result="hardAlpha"/>
<feOffset dx="1" dy="1"/>
<feGaussianBlur stdDeviation="1"/>
<feComposite in2="hardAlpha" operator="out"/>
<feColorMatrix type="matrix" values="0 0 0 0 0 0 0 0 0 0 0 0 0 0 0 0 0 0 0.25 0"/>
<feBlend mode="normal" in2="BackgroundImageFix" result="effect1_dropShadow_1301_47272"/>
<feBlend mode="normal" in="SourceGraphic" in2="effect1_dropShadow_1301_47272" result="shape"/>
</filter>
<linearGradient id="paint0_linear_1301_47272" x1="8.32829" y1="8.19961" x2="24.2303" y2="27.4452" gradientUnits="userSpaceOnUse">
<stop offset="0.0001" stop-color="#ECCA9E"/>
<stop offset="1" stop-color="#CC7D45"/>
</linearGradient>
<linearGradient id="paint1_linear_1301_47272" x1="4.50961" y1="-3.64282" x2="38.156" y2="44.418" gradientUnits="userSpaceOnUse">
<stop stop-color="#CB7941"/>
<stop offset="1" stop-color="#E7BF91"/>
</linearGradient>
<linearGradient id="paint2_linear_1301_47272" x1="5.58582" y1="7.75719" x2="19.7679" y2="30.175" gradientUnits="userSpaceOnUse">
<stop stop-color="#ECCA9E"/>
<stop offset="1" stop-color="#CB7941"/>
</linearGradient>
</defs>
</svg>
