<svg width="20" height="20" viewBox="0 0 20 20" fill="none" xmlns="http://www.w3.org/2000/svg">
<circle cx="10" cy="10" r="10" fill="#E51F7C"/>
<path d="M3.88068 13V5.72727H6.33807C6.90625 5.72727 7.37263 5.82434 7.73722 6.01847C8.1018 6.21023 8.37169 6.47419 8.54688 6.81037C8.72206 7.14654 8.80966 7.52888 8.80966 7.95739C8.80966 8.38589 8.72206 8.76586 8.54688 9.0973C8.37169 9.42874 8.10298 9.68916 7.74077 9.87855C7.37855 10.0656 6.91572 10.1591 6.35227 10.1591H4.36364V9.36364H6.32386C6.71212 9.36364 7.02462 9.30682 7.26136 9.19318C7.50047 9.07955 7.6733 8.91856 7.77983 8.71023C7.88873 8.49953 7.94318 8.24858 7.94318 7.95739C7.94318 7.66619 7.88873 7.41169 7.77983 7.19389C7.67093 6.97609 7.49692 6.808 7.25781 6.68963C7.0187 6.56889 6.70265 6.50852 6.30966 6.50852H4.76136V13H3.88068ZM7.30398 9.73295L9.09375 13H8.07102L6.30966 9.73295H7.30398ZM10.1635 15.0455V7.54545H10.9732V8.41193H11.0726C11.1342 8.31723 11.2194 8.1965 11.3283 8.04972C11.4396 7.90057 11.5982 7.76799 11.8042 7.65199C12.0125 7.53362 12.2942 7.47443 12.6493 7.47443C13.1086 7.47443 13.5134 7.58925 13.8638 7.81889C14.2142 8.04853 14.4876 8.37405 14.6841 8.79545C14.8806 9.21686 14.9789 9.71402 14.9789 10.2869C14.9789 10.8646 14.8806 11.3653 14.6841 11.7891C14.4876 12.2105 14.2154 12.5372 13.8674 12.7692C13.5194 12.9988 13.1181 13.1136 12.6635 13.1136C12.3132 13.1136 12.0326 13.0556 11.8219 12.9396C11.6112 12.8213 11.449 12.6875 11.3354 12.5384C11.2218 12.3868 11.1342 12.2614 11.0726 12.1619H11.0016V15.0455H10.1635ZM10.9874 10.2727C10.9874 10.6847 11.0478 11.0481 11.1685 11.3629C11.2892 11.6754 11.4656 11.9205 11.6976 12.098C11.9296 12.2732 12.2137 12.3608 12.5499 12.3608C12.9003 12.3608 13.1926 12.2685 13.427 12.0838C13.6638 11.8968 13.8413 11.6458 13.9597 11.331C14.0804 11.0137 14.1408 10.661 14.1408 10.2727C14.1408 9.8892 14.0816 9.54356 13.9632 9.2358C13.8472 8.92566 13.6709 8.68063 13.4341 8.50071C13.1998 8.31842 12.905 8.22727 12.5499 8.22727C12.209 8.22727 11.9225 8.31368 11.6905 8.48651C11.4585 8.65696 11.2833 8.89607 11.165 9.20384C11.0466 9.50923 10.9874 9.86553 10.9874 10.2727Z" fill="white"/>
</svg>
