<svg width="20" height="20" viewBox="0 0 20 20" fill="none" xmlns="http://www.w3.org/2000/svg">
<circle cx="10" cy="10" r="10" fill="#FF8208"/>
<path d="M9.89773 14.9091V5.81818H10.4801V14.9091H9.89773ZM11.858 8.54545C11.8153 8.18561 11.6425 7.90625 11.3395 7.70739C11.0365 7.50852 10.6648 7.40909 10.2244 7.40909C9.90246 7.40909 9.62074 7.46117 9.37926 7.56534C9.14015 7.66951 8.95313 7.81274 8.81818 7.99503C8.68561 8.17732 8.61932 8.38447 8.61932 8.61648C8.61932 8.81061 8.66548 8.97751 8.75781 9.11719C8.85251 9.2545 8.97325 9.36932 9.12003 9.46165C9.26681 9.55161 9.42069 9.62618 9.58168 9.68537C9.74266 9.74219 9.89062 9.78835 10.0256 9.82386L10.7642 10.0227C10.9536 10.0724 11.1643 10.1411 11.3963 10.2287C11.6307 10.3163 11.8544 10.4358 12.0675 10.5874C12.2829 10.7365 12.4605 10.9283 12.6001 11.1626C12.7398 11.397 12.8097 11.6847 12.8097 12.0256C12.8097 12.4186 12.7067 12.7737 12.5007 13.0909C12.2971 13.4081 11.9988 13.6603 11.6058 13.8473C11.2152 14.0343 10.7405 14.1278 10.1818 14.1278C9.66098 14.1278 9.20999 14.0438 8.82884 13.8757C8.45005 13.7076 8.15175 13.4732 7.93395 13.1726C7.71851 12.8719 7.59659 12.5227 7.56818 12.125H8.47727C8.50095 12.3996 8.59328 12.6269 8.75426 12.8068C8.91761 12.9844 9.12358 13.117 9.37216 13.2045C9.62311 13.2898 9.89299 13.3324 10.1818 13.3324C10.518 13.3324 10.8198 13.2779 11.0874 13.169C11.3549 13.0578 11.5668 12.9039 11.723 12.7074C11.8793 12.5085 11.9574 12.2765 11.9574 12.0114C11.9574 11.7699 11.8899 11.5734 11.755 11.4219C11.62 11.2704 11.4425 11.1473 11.2223 11.0526C11.0021 10.9579 10.7642 10.875 10.5085 10.804L9.61364 10.5483C9.04545 10.3849 8.59564 10.1518 8.2642 9.84872C7.93277 9.54569 7.76705 9.14915 7.76705 8.65909C7.76705 8.25189 7.87713 7.89678 8.0973 7.59375C8.31984 7.28835 8.61813 7.05161 8.99219 6.88352C9.36861 6.71307 9.78883 6.62784 10.2528 6.62784C10.7216 6.62784 11.1383 6.71188 11.5028 6.87997C11.8674 7.04569 12.1563 7.27296 12.3693 7.56179C12.5848 7.85062 12.6984 8.1785 12.7102 8.54545H11.858Z" fill="white"/>
</svg>
