<svg width="20" height="20" viewBox="0 0 20 20" fill="none" xmlns="http://www.w3.org/2000/svg">
<circle cx="10" cy="10" r="10" fill="#17AF81"/>
<path d="M3.88068 14V6.72727H6.33807C6.90625 6.72727 7.37263 6.82434 7.73722 7.01847C8.1018 7.21023 8.37169 7.47419 8.54688 7.81037C8.72206 8.14654 8.80966 8.52888 8.80966 8.95739C8.80966 9.38589 8.72206 9.76586 8.54688 10.0973C8.37169 10.4287 8.10298 10.6892 7.74077 10.8786C7.37855 11.0656 6.91572 11.1591 6.35227 11.1591H4.36364V10.3636H6.32386C6.71212 10.3636 7.02462 10.3068 7.26136 10.1932C7.50047 10.0795 7.6733 9.91856 7.77983 9.71023C7.88873 9.49953 7.94318 9.24858 7.94318 8.95739C7.94318 8.66619 7.88873 8.41169 7.77983 8.19389C7.67093 7.97609 7.49692 7.808 7.25781 7.68963C7.0187 7.56889 6.70265 7.50852 6.30966 7.50852H4.76136V14H3.88068ZM7.30398 10.733L9.09375 14H8.07102L6.30966 10.733H7.30398ZM12.2942 14.9091V5.81818H12.8766V14.9091H12.2942ZM14.2544 8.54545C14.2118 8.18561 14.039 7.90625 13.736 7.70739C13.4329 7.50852 13.0613 7.40909 12.6209 7.40909C12.2989 7.40909 12.0172 7.46117 11.7757 7.56534C11.5366 7.66951 11.3496 7.81274 11.2147 7.99503C11.0821 8.17732 11.0158 8.38447 11.0158 8.61648C11.0158 8.81061 11.062 8.97751 11.1543 9.11719C11.249 9.2545 11.3697 9.36932 11.5165 9.46165C11.6633 9.55161 11.8172 9.62618 11.9782 9.68537C12.1391 9.74219 12.2871 9.78835 12.4221 9.82386L13.1607 10.0227C13.3501 10.0724 13.5608 10.1411 13.7928 10.2287C14.0272 10.3163 14.2509 10.4358 14.464 10.5874C14.6794 10.7365 14.8569 10.9283 14.9966 11.1626C15.1363 11.397 15.2061 11.6847 15.2061 12.0256C15.2061 12.4186 15.1032 12.7737 14.8972 13.0909C14.6936 13.4081 14.3953 13.6603 14.0023 13.8473C13.6117 14.0343 13.137 14.1278 12.5783 14.1278C12.0575 14.1278 11.6065 14.0438 11.2253 13.8757C10.8465 13.7076 10.5482 13.4732 10.3304 13.1726C10.115 12.8719 9.99308 12.5227 9.96467 12.125H10.8738C10.8974 12.3996 10.9898 12.6269 11.1507 12.8068C11.3141 12.9844 11.5201 13.117 11.7686 13.2045C12.0196 13.2898 12.2895 13.3324 12.5783 13.3324C12.9145 13.3324 13.2163 13.2779 13.4838 13.169C13.7514 13.0578 13.9632 12.9039 14.1195 12.7074C14.2757 12.5085 14.3539 12.2765 14.3539 12.0114C14.3539 11.7699 14.2864 11.5734 14.1515 11.4219C14.0165 11.2704 13.839 11.1473 13.6188 11.0526C13.3986 10.9579 13.1607 10.875 12.905 10.804L12.0101 10.5483C11.4419 10.3849 10.9921 10.1518 10.6607 9.84872C10.3292 9.54569 10.1635 9.14915 10.1635 8.65909C10.1635 8.25189 10.2736 7.89678 10.4938 7.59375C10.7163 7.28835 11.0146 7.05161 11.3887 6.88352C11.7651 6.71307 12.1853 6.62784 12.6493 6.62784C13.1181 6.62784 13.5347 6.71188 13.8993 6.87997C14.2639 7.04569 14.5527 7.27296 14.7658 7.56179C14.9812 7.85062 15.0949 8.1785 15.1067 8.54545H14.2544Z" fill="#FEDF00"/>
</svg>
