<svg width="16" height="16" viewBox="0 0 16 16" fill="none" xmlns="http://www.w3.org/2000/svg">
<g clip-path="url(#clip0_1490_34945)">
<path d="M7.99997 16C3.58883 16 0 12.4115 0 7.99997C0 3.58846 3.58883 0 7.99997 0C12.4111 0 15.9999 3.58883 15.9999 7.99997C15.9999 12.4111 12.4115 16 7.99997 16ZM7.99997 1.28943C4.29972 1.28943 1.28943 4.29972 1.28943 7.99997C1.28943 11.7002 4.29972 14.7105 7.99997 14.7105C11.7002 14.7105 14.7105 11.7002 14.7105 7.99997C14.7105 4.29972 11.7005 1.28943 7.99997 1.28943Z" fill="white"/>
<path d="M5.55018 5.28548C5.68716 4.9339 5.8781 4.6301 6.12337 4.37269C6.36948 4.11407 6.66627 3.91359 7.01372 3.76997C7.36072 3.62467 7.74885 3.55286 8.17842 3.55286C8.73254 3.55286 9.19492 3.62879 9.56603 3.78157C9.93669 3.93389 10.2352 4.12361 10.4618 4.34942C10.688 4.57607 10.8503 4.82012 10.9478 5.08081C11.045 5.34272 11.094 5.58722 11.094 5.81304C11.094 6.18705 11.045 6.49581 10.9478 6.73781C10.8503 6.9798 10.7291 7.18653 10.5847 7.35831C10.4398 7.53017 10.2804 7.67669 10.1044 7.7975C9.92929 7.91868 9.76323 8.03949 9.60717 8.16067C9.4511 8.28148 9.31244 8.41968 9.19164 8.57574C9.07045 8.73142 8.99406 8.92686 8.96338 9.16061V9.60559H7.38278V9.07842C7.40605 8.74302 7.47077 8.46242 7.57577 8.23622C7.68124 8.01003 7.80403 7.81657 7.94437 7.65639C8.08509 7.49697 8.23329 7.35793 8.38973 7.24086C8.54541 7.12342 8.68942 7.00635 8.82266 6.89051C8.95468 6.7726 9.06259 6.6444 9.14478 6.50367C9.22651 6.36379 9.26353 6.18697 9.25559 5.9765C9.25559 5.61745 9.16798 5.35226 8.992 5.18078C8.81686 5.00854 8.57281 4.92299 8.26023 4.92299C8.04976 4.92299 7.86844 4.96367 7.71604 5.04547C7.56364 5.12728 7.43917 5.23725 7.34126 5.37378C7.24373 5.51076 7.17146 5.67094 7.12499 5.85364C7.07806 6.03793 7.05486 6.23383 7.05486 6.44552H5.33398C5.34139 6.02305 5.4132 5.63744 5.55018 5.28548ZM9.05679 10.3083V12.1105H7.2184V10.3083H9.05679Z" fill="white"/>
</g>
<defs>
<clipPath id="clip0_1490_34945">
<rect width="16" height="16" fill="white"/>
</clipPath>
</defs>
</svg>
