<svg width="48" height="51" viewBox="0 0 48 51" fill="none" xmlns="http://www.w3.org/2000/svg">
<circle cx="24" cy="24" r="24" fill="#211F31"/>
<g filter="url(#filter0_d_1563_31861)">
<circle cx="24" cy="24" r="19" fill="#29253C"/>
</g>
<path d="M23.8655 13.1621C21.7487 13.1619 19.6793 13.7895 17.9192 14.9655C16.1589 16.1414 14.787 17.813 13.977 19.7685C13.1668 21.7242 12.9548 23.8763 13.3677 25.9522C13.7806 28.0285 14.8 29.9356 16.2968 31.4323C17.7936 32.9292 19.7008 33.9485 21.7768 34.3615C23.8531 34.7744 26.005 34.5624 27.9605 33.7522C29.9163 32.942 31.5878 31.5701 32.7636 29.81C33.9396 28.0498 34.5671 25.9805 34.567 23.8637C34.5638 21.0264 33.4353 18.3064 31.429 16.2998C29.4228 14.2936 26.7024 13.1651 23.8651 13.1619L23.8655 13.1621ZM23.8655 16.4914C24.8117 16.4914 25.719 16.8674 26.388 17.5364C27.057 18.2054 27.4328 19.1126 27.4328 20.0587C27.4328 21.0049 27.057 21.9122 26.388 22.5812C25.7189 23.2502 24.8117 23.626 23.8655 23.626C22.9194 23.626 22.0122 23.2503 21.3431 22.5812C20.6741 21.9122 20.2982 21.0049 20.2982 20.0587C20.2982 19.1127 20.6741 18.2054 21.3431 17.5364C22.0122 16.8673 22.9194 16.4914 23.8655 16.4914ZM31.7848 29.1362V29.1363C30.6219 30.8821 28.9146 32.1948 26.9282 32.8702C24.9422 33.5455 22.7885 33.5455 20.8023 32.8702C18.8161 32.1948 17.1088 30.8822 15.9457 29.1363C15.9363 29.1221 15.9266 29.1055 15.9172 29.0912C16.0313 26.5869 19.5463 24.5773 23.865 24.5773C28.1836 24.5773 31.6985 26.5869 31.8128 29.0912C31.8032 29.1055 31.7937 29.1221 31.7841 29.1363L31.7848 29.1362Z" fill="#7782AA"/>
<defs>
<filter id="filter0_d_1563_31861" x="0" y="3" width="48" height="48" filterUnits="userSpaceOnUse" color-interpolation-filters="sRGB">
<feFlood flood-opacity="0" result="BackgroundImageFix"/>
<feColorMatrix in="SourceAlpha" type="matrix" values="0 0 0 0 0 0 0 0 0 0 0 0 0 0 0 0 0 0 127 0" result="hardAlpha"/>
<feMorphology radius="1" operator="dilate" in="SourceAlpha" result="effect1_dropShadow_1563_31861"/>
<feOffset dy="3"/>
<feGaussianBlur stdDeviation="2"/>
<feComposite in2="hardAlpha" operator="out"/>
<feColorMatrix type="matrix" values="0 0 0 0 0 0 0 0 0 0 0 0 0 0 0 0 0 0 0.21 0"/>
<feBlend mode="normal" in2="BackgroundImageFix" result="effect1_dropShadow_1563_31861"/>
<feBlend mode="normal" in="SourceGraphic" in2="effect1_dropShadow_1563_31861" result="shape"/>
</filter>
</defs>
</svg>
