<svg width="76" height="92" viewBox="0 0 76 92" fill="none" xmlns="http://www.w3.org/2000/svg">
<path d="M8.38477 64V88L27.6888 74.56L8.38477 64Z" fill="black"/>
<path d="M66.2969 64V88L46.9928 74.56L66.2969 64Z" fill="black"/>
<g filter="url(#filter0_d_1704_41948)">
<path d="M8.38477 57.1406V65.1011C15.6463 69.0813 30.8573 77.6104 33.609 79.8848C36.3607 82.1592 39.3418 80.8325 40.4883 79.8848L49.0875 74.7674L66.8591 64.5325L67.4324 57.1406H8.38477Z" fill="white"/>
</g>
<g filter="url(#filter1_i_1704_41948)">
<path fill-rule="evenodd" clip-rule="evenodd" d="M53 14.5681L37 5.71094L21 14.5681L5 23.4252V41.1395V58.8538L21 67.7109L37 76.5681L53 67.7109L69 58.8538V41.1395V23.4252L53 14.5681Z" fill="url(#paint0_linear_1704_41948)"/>
</g>
<g filter="url(#filter2_d_1704_41948)">
<path d="M18.8807 30.6364L23.0568 44.9943H23.2159L27.392 30.6364H33.6364L26.9148 51H19.358L12.6364 30.6364H18.8807ZM41.4061 30.6364V51H35.8777V30.6364H41.4061ZM44.3061 51V30.6364H53.0959C54.6072 30.6364 55.9297 30.9347 57.0632 31.5312C58.1967 32.1278 59.0783 32.9664 59.7081 34.0469C60.3378 35.1274 60.6527 36.3902 60.6527 37.8352C60.6527 39.2936 60.3279 40.5563 59.6783 41.6236C59.0353 42.6908 58.1304 43.5128 56.9638 44.0895C55.8037 44.6662 54.4481 44.9545 52.897 44.9545H47.647V40.6591H51.7834C52.433 40.6591 52.9865 40.5464 53.4439 40.321C53.9079 40.089 54.2625 39.7609 54.5078 39.3366C54.7597 38.9124 54.8856 38.4119 54.8856 37.8352C54.8856 37.2519 54.7597 36.7547 54.5078 36.3438C54.2625 35.9261 53.9079 35.608 53.4439 35.3892C52.9865 35.1638 52.433 35.0511 51.7834 35.0511H49.8345V51H44.3061Z" fill="#974C19"/>
</g>
<path fill-rule="evenodd" clip-rule="evenodd" d="M54.0895 12.0033L39.3473 3.45301C38.1062 2.7332 36.5747 2.7332 35.3336 3.45301L20.5914 12.0033L5.83544 20.5616C4.6017 21.2772 3.84229 22.5955 3.84229 24.0218V41.1462V58.2706C3.84229 59.6969 4.60169 61.0152 5.83544 61.7308L20.5914 70.2891L35.3336 78.8394C36.5747 79.5592 38.1062 79.5592 39.3473 78.8394L54.0895 70.2891L68.8455 61.7308C70.0792 61.0152 70.8386 59.6969 70.8386 58.2706V41.1462V24.0218C70.8386 22.5955 70.0792 21.2772 68.8455 20.5616L54.0895 12.0033ZM52.479 67.2669C48.101 69.7953 43.8037 72.3237 39.447 74.8522C38.2107 75.5697 36.6849 75.5697 35.4486 74.8522C31.0919 72.3237 26.7947 69.7953 22.4166 67.2669C18.0382 64.7382 13.7406 62.2096 9.38365 59.681C8.14781 58.9638 7.38535 57.6438 7.38535 56.2149C7.38535 51.156 7.38535 46.0972 7.38535 41.0383C7.38535 35.9794 7.38535 30.9205 7.38535 25.8616C7.38535 24.4327 8.14781 23.1127 9.38365 22.3955C13.7406 19.8669 18.0382 17.3383 22.4166 14.8097C26.7947 12.2813 31.0919 9.75282 35.4486 7.22438C36.6849 6.50688 38.2107 6.50688 39.447 7.22439C43.8037 9.75282 48.101 12.2813 52.479 14.8097C56.8574 17.3383 61.155 19.8669 65.512 22.3955C66.7478 23.1127 67.5103 24.4327 67.5103 25.8616C67.5103 30.9205 67.5103 35.9794 67.5103 41.0383C67.5103 46.0972 67.5103 51.156 67.5103 56.2149C67.5103 57.6438 66.7478 58.9638 65.512 59.681C61.155 62.2096 56.8574 64.7382 52.479 67.2669Z" fill="url(#paint1_linear_1704_41948)"/>
<path fill-rule="evenodd" clip-rule="evenodd" d="M55.1428 10.2857L39.4371 1.16625C38.1952 0.445124 36.662 0.445124 35.42 1.16625L19.7143 10.2857L3.99146 19.4151C2.75867 20.1309 2 21.4487 2 22.8743V41.1429V59.4115C2 60.837 2.75867 62.1548 3.99146 62.8706L19.7143 72L35.42 81.1195C36.662 81.8406 38.1952 81.8406 39.4371 81.1195L55.1428 72L70.8657 62.8706C72.0985 62.1548 72.8571 60.837 72.8571 59.4115V41.1429V22.8743C72.8571 21.4487 72.0985 20.1309 70.8657 19.4151L55.1428 10.2857ZM53.4395 68.8C48.7712 71.4992 44.1896 74.1983 39.543 76.8974C38.3058 77.6161 36.7784 77.6161 35.5412 76.8974C30.8946 74.1983 26.3131 71.4992 21.6447 68.8C16.9749 66.1 12.392 63.4001 7.74388 60.7001C6.50893 59.9827 5.74724 58.6633 5.74724 57.2351C5.74724 51.8329 5.74724 46.4308 5.74724 41.0286C5.74724 35.6264 5.74724 30.2242 5.74724 24.822C5.74724 23.3939 6.50893 22.0744 7.74388 21.3571C12.392 18.6571 16.9749 15.9571 21.6447 13.2571C26.3131 10.558 30.8946 7.85885 35.5412 5.15971C36.7784 4.44102 38.3058 4.44102 39.543 5.15971C44.1896 7.85885 48.7712 10.558 53.4395 13.2571C58.1094 15.9571 62.6923 18.6571 67.3403 21.3571C68.5753 22.0744 69.337 23.3939 69.337 24.822C69.337 30.2242 69.337 35.6264 69.337 41.0286C69.337 46.4308 69.337 51.8329 69.337 57.2351C69.337 58.6633 68.5753 59.9827 67.3403 60.7001C62.6923 63.4001 58.1094 66.1 53.4395 68.8Z" fill="url(#paint2_linear_1704_41948)"/>
<defs>
<filter id="filter0_d_1704_41948" x="0.384766" y="51.1406" width="75.0479" height="40" filterUnits="userSpaceOnUse" color-interpolation-filters="sRGB">
<feFlood flood-opacity="0" result="BackgroundImageFix"/>
<feColorMatrix in="SourceAlpha" type="matrix" values="0 0 0 0 0 0 0 0 0 0 0 0 0 0 0 0 0 0 127 0" result="hardAlpha"/>
<feOffset dy="2"/>
<feGaussianBlur stdDeviation="4"/>
<feComposite in2="hardAlpha" operator="out"/>
<feColorMatrix type="matrix" values="0 0 0 0 0 0 0 0 0 0 0 0 0 0 0 0 0 0 0.8 0"/>
<feBlend mode="normal" in2="BackgroundImageFix" result="effect1_dropShadow_1704_41948"/>
<feBlend mode="normal" in="SourceGraphic" in2="effect1_dropShadow_1704_41948" result="shape"/>
</filter>
<filter id="filter1_i_1704_41948" x="5" y="5.71094" width="64" height="70.8594" filterUnits="userSpaceOnUse" color-interpolation-filters="sRGB">
<feFlood flood-opacity="0" result="BackgroundImageFix"/>
<feBlend mode="normal" in="SourceGraphic" in2="BackgroundImageFix" result="shape"/>
<feColorMatrix in="SourceAlpha" type="matrix" values="0 0 0 0 0 0 0 0 0 0 0 0 0 0 0 0 0 0 127 0" result="hardAlpha"/>
<feOffset/>
<feGaussianBlur stdDeviation="2"/>
<feComposite in2="hardAlpha" operator="arithmetic" k2="-1" k3="1"/>
<feColorMatrix type="matrix" values="0 0 0 0 0 0 0 0 0 0 0 0 0 0 0 0 0 0 0.67 0"/>
<feBlend mode="normal" in2="shape" result="effect1_innerShadow_1704_41948"/>
</filter>
<filter id="filter2_d_1704_41948" x="11.6362" y="29.6328" width="52.0166" height="24.3672" filterUnits="userSpaceOnUse" color-interpolation-filters="sRGB">
<feFlood flood-opacity="0" result="BackgroundImageFix"/>
<feColorMatrix in="SourceAlpha" type="matrix" values="0 0 0 0 0 0 0 0 0 0 0 0 0 0 0 0 0 0 127 0" result="hardAlpha"/>
<feOffset dx="1" dy="1"/>
<feGaussianBlur stdDeviation="1"/>
<feComposite in2="hardAlpha" operator="out"/>
<feColorMatrix type="matrix" values="0 0 0 0 0 0 0 0 0 0 0 0 0 0 0 0 0 0 0.25 0"/>
<feBlend mode="normal" in2="BackgroundImageFix" result="effect1_dropShadow_1704_41948"/>
<feBlend mode="normal" in="SourceGraphic" in2="effect1_dropShadow_1704_41948" result="shape"/>
</filter>
<linearGradient id="paint0_linear_1704_41948" x1="9.33898" y1="21.8622" x2="51.7443" y2="73.1839" gradientUnits="userSpaceOnUse">
<stop offset="0.0001" stop-color="#ECCA9E"/>
<stop offset="1" stop-color="#CC7D45"/>
</linearGradient>
<linearGradient id="paint1_linear_1704_41948" x1="-0.132075" y1="-9.71094" x2="89.5916" y2="118.451" gradientUnits="userSpaceOnUse">
<stop stop-color="#CB7941"/>
<stop offset="1" stop-color="#E7BF91"/>
</linearGradient>
<linearGradient id="paint2_linear_1704_41948" x1="2.4541" y1="20.6858" x2="40.2729" y2="80.4668" gradientUnits="userSpaceOnUse">
<stop stop-color="#ECCA9E"/>
<stop offset="1" stop-color="#CB7941"/>
</linearGradient>
</defs>
</svg>
