<svg width="60" height="23" viewBox="0 0 60 23" fill="none" xmlns="http://www.w3.org/2000/svg">
<path d="M0.140625 0.671875H7.89062C12.4844 0.671875 14.7812 2.47917 14.7812 6.09375C14.7812 7.88542 13.9948 9.375 12.4219 10.5625C14.7031 11.5521 15.8438 13.3177 15.8438 15.8594C15.8438 17.8073 15.1719 19.3594 13.8281 20.5156C13.1719 21.0677 12.4688 21.4531 11.7188 21.6719C10.9688 21.8906 9.95833 22 8.6875 22H7.48438V16.5156H8.5625C9.19792 16.5156 9.64583 16.4375 9.90625 16.2812C10.1667 16.1146 10.2969 15.8281 10.2969 15.4219C10.2969 14.7344 9.76562 14.3906 8.70312 14.3906H7.48438V8.70312C8.65104 8.70312 9.23438 8.30208 9.23438 7.5C9.23438 6.76042 8.70833 6.39062 7.65625 6.39062H6.48438V22H0.140625V0.671875ZM17.9844 0.671875H24.3281V13.3438C24.3281 14.3333 24.4844 14.9948 24.7969 15.3281C25.1198 15.651 25.75 15.8125 26.6875 15.8125H27.0156V22H25.3281C23.0156 22 21.2135 21.3281 19.9219 19.9844C18.6302 18.6302 17.9844 16.7552 17.9844 14.3594V0.671875ZM44.1562 0.671875V14.5C44.1562 16.9375 43.4271 18.8854 41.9688 20.3438C40.5208 21.8021 38.5885 22.5312 36.1719 22.5312C33.7656 22.5312 31.9219 21.8229 30.6406 20.4062C29.3698 18.9896 28.7344 16.9531 28.7344 14.2969V0.671875H35.0781V14.2812C35.0781 15.5833 35.5417 16.2344 36.4688 16.2344C37.3646 16.2344 37.8125 15.5833 37.8125 14.2812V0.671875H44.1562ZM59.3906 8.96875V13.7188H55.25C54.6875 13.7188 54.2865 13.8021 54.0469 13.9688C53.8177 14.1354 53.7031 14.4167 53.7031 14.8125C53.7031 15.2604 53.8229 15.5573 54.0625 15.7031C54.3021 15.8385 54.7917 15.9062 55.5312 15.9062H59.7969V22H54.8125C52.4688 22 50.6771 21.4427 49.4375 20.3281C48.1979 19.2031 47.5781 17.5833 47.5781 15.4688V7.10938C47.5781 5.06771 48.1615 3.48438 49.3281 2.35938C50.5052 1.23438 52.1562 0.671875 54.2812 0.671875H59.7969V6.79688H55.75C54.6562 6.79688 54.1094 7.15104 54.1094 7.85938C54.1094 8.27604 54.2396 8.56771 54.5 8.73438C54.7604 8.89062 55.224 8.96875 55.8906 8.96875H59.3906Z" fill="#637BF9"/>
</svg>
