<svg width="19" height="23" viewBox="0 0 19 23" fill="none" xmlns="http://www.w3.org/2000/svg">
<path d="M17.9935 2.99681L15.9639 17.7291L16.3932 3.60737C16.4062 3.15437 16.1785 2.85237 15.9118 2.67511C15.7037 2.53724 15.4565 2.47816 15.2093 2.47816L1.94507 2.46503L2.12722 0.771203C2.19227 0.278813 2.64113 -0.0625778 3.12902 0.00963945L17.2389 1.98577C17.7203 2.05142 18.0585 2.50442 17.9935 2.99681Z" fill="white"/>
<path d="M15.1247 2.89172H0.897723C0.403325 2.89172 0 3.29877 0 3.79772V21.097C0 21.596 0.403325 22.003 0.897723 22.003H15.1312C15.6256 22.003 16.0289 21.596 16.0289 21.097V3.79772C16.0224 3.29877 15.6191 2.89172 15.1247 2.89172ZM8.00795 18.0311C4.95049 18.0311 2.47199 15.5297 2.47199 12.4441C2.47199 9.35845 4.95049 6.85711 8.00795 6.85711C11.0654 6.85711 13.5439 9.35845 13.5439 12.4441C13.5439 15.5297 11.0654 18.0311 8.00795 18.0311Z" fill="white"/>
<path d="M8.04709 9.27319L8.85374 11.7745H11.4623L9.34813 13.3239L10.1548 15.8318L8.04709 14.2824L5.93288 15.8318L6.73953 13.3239L4.63184 11.7745H7.24044L8.04709 9.27319Z" fill="white"/>
</svg>
