<svg width="79" height="23" viewBox="0 0 79 23" fill="none" xmlns="http://www.w3.org/2000/svg">
<path d="M11.1719 10.0469H17.2188C18.5208 11.6615 19.1719 13.3646 19.1719 15.1562C19.1719 17.2396 18.4062 18.9896 16.875 20.4062C15.3542 21.8229 13.4792 22.5312 11.25 22.5312C8.35417 22.5312 5.89583 21.4323 3.875 19.2344C1.85417 17.0365 0.84375 14.3594 0.84375 11.2031C0.84375 8.03646 1.86979 5.40104 3.92188 3.29688C5.98438 1.19271 8.55729 0.140625 11.6406 0.140625C12.6927 0.140625 13.8594 0.354167 15.1406 0.78125V7.125C14.1406 6.65625 13.2292 6.42188 12.4062 6.42188C10.9167 6.42188 9.69792 6.88542 8.75 7.8125C7.8125 8.73958 7.34375 9.94271 7.34375 11.4219C7.34375 12.9323 7.78125 14.1302 8.65625 15.0156C9.53125 15.901 10.7135 16.3438 12.2031 16.3438C13.151 16.3438 13.625 16.0677 13.625 15.5156C13.625 15.099 13.3125 14.8906 12.6875 14.8906H11.1719V10.0469ZM29.5 11.2969V16.9219H27.6719V22H21.3281V8.4375C21.3281 5.8125 22.0417 3.77604 23.4688 2.32812C24.9062 0.869792 26.9219 0.140625 29.5156 0.140625C32.0156 0.140625 33.8646 0.802083 35.0625 2.125C36.2604 3.4375 36.8594 5.46875 36.8594 8.21875V22H30.5156V8.64062C30.5156 7.80729 30.4167 7.22917 30.2188 6.90625C30.0208 6.58333 29.6667 6.42188 29.1562 6.42188C28.1667 6.42188 27.6719 7.16146 27.6719 8.64062V11.2969H29.5ZM40.2656 22V6.625C40.2656 4.71875 40.8438 3.16146 42 1.95312C43.1562 0.744792 44.6562 0.140625 46.5 0.140625C48.6875 0.140625 50.3698 1.14583 51.5469 3.15625C52.2656 2.07292 53.0365 1.30208 53.8594 0.84375C54.6823 0.375 55.6979 0.140625 56.9062 0.140625C58.8229 0.140625 60.2917 0.744792 61.3125 1.95312C62.3333 3.16146 62.8438 4.90104 62.8438 7.17188V22H56.5V8.125C56.5 7.4375 56.4427 6.98438 56.3281 6.76562C56.224 6.53646 56.0052 6.42188 55.6719 6.42188C55.0469 6.42188 54.7344 6.95312 54.7344 8.01562V22H48.3906V8.125C48.3906 7.44792 48.3333 6.99479 48.2188 6.76562C48.1042 6.53646 47.8802 6.42188 47.5469 6.42188C46.9219 6.42188 46.6094 6.98958 46.6094 8.125V22H40.2656ZM78.0781 8.96875V13.7188H73.9375C73.375 13.7188 72.974 13.8021 72.7344 13.9688C72.5052 14.1354 72.3906 14.4167 72.3906 14.8125C72.3906 15.2604 72.5104 15.5573 72.75 15.7031C72.9896 15.8385 73.4792 15.9062 74.2188 15.9062H78.4844V22H73.5C71.1562 22 69.3646 21.4427 68.125 20.3281C66.8854 19.2031 66.2656 17.5833 66.2656 15.4688V7.10938C66.2656 5.06771 66.849 3.48438 68.0156 2.35938C69.1927 1.23438 70.8438 0.671875 72.9688 0.671875H78.4844V6.79688H74.4375C73.3438 6.79688 72.7969 7.15104 72.7969 7.85938C72.7969 8.27604 72.9271 8.56771 73.1875 8.73438C73.4479 8.89062 73.9115 8.96875 74.5781 8.96875H78.0781Z" fill="#F9BC01"/>
</svg>
