<svg width="41" height="40" viewBox="0 0 41 40" fill="none" xmlns="http://www.w3.org/2000/svg">
<circle cx="20.5" cy="20" r="20" fill="#131828"/>
<g clip-path="url(#clip0_1390_96)">
<path fill-rule="evenodd" clip-rule="evenodd" d="M17.6434 16.4252H21.5953V18.4511L21.6525 18.4512C22.2028 17.4639 23.5486 16.4253 25.5552 16.4253C29.7282 16.4252 30.5 19.0221 30.5 22.4004V29.282L26.3787 29.2822V23.1818C26.3787 21.7276 26.3484 19.8556 24.2357 19.8556C22.0898 19.8556 21.761 21.4386 21.761 23.0759V29.2822H17.6434V16.4253V16.4252ZM14.7863 12.8539C14.7863 14.0369 13.8263 14.9968 12.6433 14.9968C11.4604 14.9968 10.5 14.0368 10.5 12.8539C10.5 11.6709 11.4604 10.7109 12.6433 10.7109C13.8263 10.7109 14.7863 11.6709 14.7863 12.8539ZM10.5 16.4252H14.7863V29.2821H10.5V16.4252Z" fill="white"/>
</g>
<defs>
<clipPath id="clip0_1390_96">
<rect width="20" height="20" fill="white" transform="translate(10.5 10)"/>
</clipPath>
</defs>
</svg>
