<svg width="24" height="24" viewBox="0 0 24 24" fill="none" xmlns="http://www.w3.org/2000/svg">
<path d="M8.49203 16.6198C10.3492 15.9218 11.9454 14.6655 13.0623 13.0228C14.179 11.3804 14.7615 9.43226 14.73 7.44509C14.6985 5.45809 14.0545 3.52934 12.8862 1.92345C14.9029 2.40629 17.5638 4.68271 18.8913 6.27831C20.2191 7.87391 20.9965 9.85672 21.1078 11.9311C21.2192 14.0055 20.6584 16.0602 19.509 17.7893C18.3595 19.5183 16.6834 20.8289 14.73 21.5254C12.7766 22.2222 10.6509 22.2677 8.66958 21.6552C6.68828 21.0428 4.10399 18.6518 2.8817 16.9735C4.74513 17.4215 6.6998 17.2985 8.49203 16.6198Z" fill="#7782AA"/>
</svg>
