<svg width="41" height="40" viewBox="0 0 41 40" fill="none" xmlns="http://www.w3.org/2000/svg">
<circle cx="20.5" cy="20" r="20" fill="#131828"/>
<g clip-path="url(#clip0_1390_88)">
<path fill-rule="evenodd" clip-rule="evenodd" d="M30.4996 13.7959C29.7644 14.1247 28.9723 14.3432 28.1452 14.4406C28.9926 13.9331 29.6406 13.1289 29.95 12.1715C29.158 12.6399 28.2777 12.9834 27.345 13.1672C26.5951 12.3704 25.5299 11.875 24.3499 11.875C22.0842 11.875 20.2497 13.7105 20.2497 15.9748C20.2497 16.2944 20.2852 16.607 20.3546 16.9085C16.9454 16.7357 13.9229 15.1037 11.8997 12.6205C11.5367 13.2466 11.3447 13.9585 11.3447 14.6825V14.683C11.3447 16.1048 12.0665 17.3622 13.168 18.0956C12.4959 18.0756 11.8637 17.8881 11.3086 17.5844V17.6357C11.3086 19.6239 12.7218 21.283 14.5997 21.658C14.2556 21.7514 13.8925 21.803 13.5183 21.803C13.2533 21.803 12.9979 21.7757 12.744 21.7296C13.2685 23.3579 14.7825 24.545 16.5754 24.5796C15.1696 25.681 13.4039 26.3368 11.4791 26.3368C11.1469 26.3368 10.8232 26.3164 10.5 26.2777C12.3196 27.4452 14.4751 28.1213 16.7906 28.1213C24.3348 28.1213 28.4637 21.8694 28.4637 16.4487C28.4637 16.2686 28.4597 16.0941 28.4523 15.9176C29.2535 15.3444 29.9482 14.6211 30.4981 13.7976L30.4999 13.7958L30.4996 13.796L30.4996 13.7959Z" fill="white"/>
</g>
<defs>
<clipPath id="clip0_1390_88">
<rect width="20" height="20" fill="white" transform="translate(10.5 10)"/>
</clipPath>
</defs>
</svg>
