<svg width="18" height="18" viewBox="0 0 18 18" fill="none" xmlns="http://www.w3.org/2000/svg">
<g clip-path="url(#clip0_28_29716)">
<path d="M8.99997 18C4.03743 18 0 13.9629 0 8.99997C0 4.03701 4.03743 0 8.99997 0C13.9625 0 17.9999 4.03743 17.9999 8.99997C17.9999 13.9625 13.9629 18 8.99997 18ZM8.99997 1.45061C4.83718 1.45061 1.45061 4.83718 1.45061 8.99997C1.45061 13.1628 4.83718 16.5493 8.99997 16.5493C13.1628 16.5493 16.5493 13.1628 16.5493 8.99997C16.5493 4.83718 13.1631 1.45061 8.99997 1.45061Z" fill="white"/>
<path d="M6.24322 5.94627C6.39733 5.55075 6.61213 5.20897 6.88806 4.91939C7.16494 4.62843 7.49882 4.4029 7.88971 4.24132C8.28008 4.07786 8.71673 3.99707 9.19999 3.99707C9.82337 3.99707 10.3436 4.08249 10.7611 4.25437C11.178 4.42573 11.5138 4.63916 11.7688 4.8932C12.0233 5.14818 12.2059 5.42274 12.3156 5.71602C12.4249 6.01066 12.48 6.28573 12.48 6.53977C12.48 6.96054 12.4249 7.3079 12.3156 7.58014C12.2059 7.85238 12.0695 8.08495 11.907 8.27821C11.7441 8.47155 11.5647 8.63639 11.3667 8.77229C11.1697 8.90862 10.9829 9.04453 10.8073 9.18086C10.6318 9.31677 10.4758 9.47225 10.3399 9.64782C10.2035 9.82296 10.1176 10.0428 10.0831 10.3058V10.8064H8.30489V10.2133C8.33108 9.83601 8.40388 9.52033 8.52201 9.26586C8.64066 9.01139 8.7788 8.79375 8.93668 8.61355C9.09499 8.4342 9.26172 8.27778 9.43772 8.14608C9.61286 8.01395 9.77486 7.88225 9.92476 7.75193C10.0733 7.61929 10.1947 7.47505 10.2871 7.31674C10.3791 7.15937 10.4207 6.96045 10.4118 6.72367C10.4118 6.31973 10.3132 6.02139 10.1153 5.82848C9.91824 5.63471 9.64368 5.53847 9.29203 5.53847C9.05525 5.53847 8.85126 5.58423 8.67981 5.67627C8.50836 5.7683 8.36834 5.89201 8.25819 6.0456C8.14847 6.19971 8.06716 6.37992 8.01488 6.58545C7.96208 6.79278 7.93598 7.01317 7.93598 7.25132H6C6.00833 6.77604 6.08912 6.34223 6.24322 5.94627ZM10.1882 11.5969V13.6244H8.11996V11.5969H10.1882Z" fill="white"/>
</g>
<defs>
<clipPath id="clip0_28_29716">
<rect width="18" height="18" fill="white"/>
</clipPath>
</defs>
</svg>
