<svg width="24" height="24" viewBox="0 0 24 24" fill="none" xmlns="http://www.w3.org/2000/svg">
<path d="M11.9948 16.9711C9.25539 16.9711 7.02002 14.7356 7.02002 11.9963C7.02002 9.25687 9.25543 7.02146 11.9948 7.02146C14.7342 7.02146 16.9696 9.25687 16.9696 11.9963C16.9696 14.7356 14.7342 16.9711 11.9948 16.9711Z" fill="white"/>
<path d="M11.9952 7.56957C14.4278 7.56957 16.4221 9.56391 16.4221 11.9965C16.4221 14.4291 14.4278 16.4234 11.9952 16.4234C9.56265 16.4234 7.5683 14.4291 7.5683 11.9965C7.5683 9.56391 9.56265 7.56957 11.9952 7.56957ZM11.9952 6.4738C8.94898 6.4738 6.47253 8.95028 6.47253 11.9965C6.47253 15.0427 8.94901 17.5192 11.9952 17.5192C15.0414 17.5192 17.5179 15.0427 17.5179 11.9965C17.5179 8.95028 15.0414 6.4738 11.9952 6.4738Z" fill="white"/>
<path d="M11.9926 4.63673V1.92" stroke="white" stroke-width="1.5" stroke-miterlimit="10" stroke-linecap="round" stroke-linejoin="round"/>
<path d="M11.9926 22.0792V19.3625" stroke="white" stroke-width="1.5" stroke-miterlimit="10" stroke-linecap="round" stroke-linejoin="round"/>
<path d="M4.63678 11.9954H1.92004" stroke="white" stroke-width="1.5" stroke-miterlimit="10" stroke-linecap="round" stroke-linejoin="round"/>
<path d="M22.0817 11.9954H19.365" stroke="white" stroke-width="1.5" stroke-miterlimit="10" stroke-linecap="round" stroke-linejoin="round"/>
<path d="M6.80372 6.8047L5.7301 5.73109" stroke="white" stroke-width="1.5" stroke-miterlimit="10" stroke-linecap="round" stroke-linejoin="round"/>
<path d="M18.6436 18.6404L17.1975 17.1944" stroke="white" stroke-width="1.5" stroke-miterlimit="10" stroke-linecap="round" stroke-linejoin="round"/>
<path d="M6.80372 17.1944L5.7301 18.268" stroke="white" stroke-width="1.5" stroke-miterlimit="10" stroke-linecap="round" stroke-linejoin="round"/>
<path d="M18.2711 5.73109L17.1975 6.8047" stroke="white" stroke-width="1.5" stroke-miterlimit="10" stroke-linecap="round" stroke-linejoin="round"/>
</svg>
