<svg width="24" height="24" viewBox="0 0 24 24" fill="none" xmlns="http://www.w3.org/2000/svg">
<g clip-path="url(#clip0_1196_1102)">
<path d="M0 3.68908H24V19.6623H0V3.68908Z" fill="#F0F0F0"/>
<path d="M13.5 3.68908H10.5V10.1781H0V13.173H10.5V19.662H13.5V13.173H24V10.1781H13.5V3.68908Z" fill="#D80027"/>
<path d="M18.4594 14.4521L24.0007 17.5255V14.4521H18.4594ZM14.6094 14.4521L24.0007 19.6607V18.1879L17.2651 14.4521H14.6094ZM21.4992 19.6607L14.6094 15.8392V19.6607H21.4992Z" fill="#0052B4"/>
<path d="M14.6094 14.2884L24.0007 19.4969V18.0241L17.2651 14.2884H14.6094Z" fill="#F0F0F0"/>
<path d="M14.6094 14.4521L24.0007 19.6607V18.1879L17.2651 14.4521H14.6094Z" fill="#D80027"/>
<path d="M4.23473 14.4521L0 16.8008V14.4521H4.23473ZM9.39131 15.1145V19.6608H1.19489L9.39131 15.1145Z" fill="#0052B4"/>
<path d="M6.73561 14.4521L0 18.1879V19.6607L9.39131 14.4521H6.73561Z" fill="#D80027"/>
<path d="M5.54133 8.89765L0 5.82428V8.89765H5.54133ZM9.39131 8.89765L0 3.68908V5.16193L6.73561 8.89765H9.39131ZM2.50153 3.68908L9.39131 7.51062V3.68908H2.50153Z" fill="#0052B4"/>
<path d="M9.39131 8.73387L0 3.52529V4.99815L6.73561 8.73387H9.39131Z" fill="#F0F0F0"/>
<path d="M9.39131 8.89765L0 3.68908V5.16193L6.73561 8.89765H9.39131Z" fill="#D80027"/>
<path d="M19.766 8.8977L24.0007 6.54901V8.8977H19.766ZM14.6094 8.23535V3.68908H22.8058L14.6094 8.23535Z" fill="#0052B4"/>
<path d="M17.2651 8.89765L24.0007 5.16193V3.68908L14.6094 8.89765H17.2651Z" fill="#D80027"/>
</g>
<defs>
<clipPath id="clip0_1196_1102">
<rect width="24" height="24" fill="white"/>
</clipPath>
</defs>
</svg>
