<svg width="24" height="24" viewBox="0 0 24 24" fill="none" xmlns="http://www.w3.org/2000/svg">
<path d="M14.3315 9.10233C16.9302 9.15429 19.5218 9.4343 22.0718 9.93584C21.5027 7.16402 19.7987 4.66411 17.2604 3.15618C16.3557 4.2538 15.6198 5.48262 15.0678 6.81159C14.7566 7.56116 14.5101 8.32698 14.3314 9.10233L14.3315 9.10233Z" fill="#7782AA"/>
<path d="M16.833 21.0538C18.8611 19.9741 20.5404 18.213 21.4883 15.9309C22.108 14.4388 22.3494 12.8797 22.2555 11.3674C19.5637 10.8042 16.821 10.504 14.0761 10.4657C13.5833 14.1769 14.5404 17.9833 16.8331 21.054L16.833 21.0538Z" fill="#7782AA"/>
<path d="M12.7031 10.467C11.8797 10.4807 11.06 10.5172 10.2388 10.5771C10.2349 10.6631 10.2333 10.7501 10.2294 10.8361C10.0842 14.1261 9.3669 17.3486 8.09258 20.4166C7.96564 20.7222 7.83182 21.0251 7.69452 21.3238C7.81256 21.378 7.93391 21.4311 8.05393 21.4809C10.5445 22.5154 13.2131 22.4955 15.5602 21.6253C13.2209 18.3598 12.229 14.369 12.7032 10.4669L12.7031 10.467Z" fill="#7782AA"/>
<path d="M8.85844 10.7079C6.44841 10.9625 4.05793 11.4193 1.71512 12.0734C1.74817 15.5093 3.51028 18.7901 6.49173 20.6758C6.60897 20.4192 6.72155 20.1607 6.83064 19.8981C8.04945 16.9637 8.72808 13.8472 8.85846 10.7079L8.85844 10.7079Z" fill="#7782AA"/>
<path d="M7.94061 2.5458C5.56542 3.56619 3.57015 5.47448 2.50263 8.04461C2.14996 8.89367 1.91958 9.76162 1.80563 10.6302C4.12738 10.0069 6.49382 9.56963 8.87853 9.32539C8.85726 7.04395 8.54575 4.76416 7.94078 2.54557L7.94061 2.5458Z" fill="#7782AA"/>
<path d="M9.23507 2.09606C9.8797 4.4239 10.2226 6.80704 10.2546 9.20991C10.7665 9.17288 11.2799 9.1447 11.7919 9.12638C12.1724 9.11177 12.5531 9.10268 12.9341 9.09912C13.1356 8.14737 13.4248 7.20818 13.8057 6.29124C14.3699 4.93276 15.1124 3.66951 16.0138 2.52803L15.9439 2.49882C13.7317 1.57999 11.379 1.49224 9.23489 2.09629L9.23507 2.09606Z" fill="#7782AA"/>
</svg>
